<svg width="1280" height="360" viewBox="0 0 1280 360" fill="none" xmlns="http://www.w3.org/2000/svg" role="img" aria-labelledby="title desc">
  <title id="title">Converge</title>
  <desc id="desc">A dependency graph mark with converging paths and the Converge wordmark.</desc>
  <rect width="1280" height="360" rx="44" fill="#0B1020"/>
  <path d="M0 270C142 218 256 207 390 236C520 264 632 322 768 302C930 278 1030 148 1280 126V360H0V270Z" fill="#10233F"/>
  <path d="M0 42C190 104 328 110 494 82C664 54 796 6 970 26C1102 42 1192 82 1280 123V0H0V42Z" fill="#0E172D"/>
  <g transform="translate(92 68)">
    <circle cx="106" cy="106" r="90" fill="#111A33" stroke="#2DD4BF" stroke-width="8"/>
    <path d="M52 72H98L136 106L98 140H52" stroke="#E6FFFB" stroke-width="16" stroke-linecap="round" stroke-linejoin="round"/>
    <path d="M160 48L206 48M160 106H226M160 164H206" stroke="#8B5CF6" stroke-width="16" stroke-linecap="round"/>
    <path d="M100 72L156 48M136 106H156M100 140L156 164" stroke="#2DD4BF" stroke-width="12" stroke-linecap="round" stroke-linejoin="round"/>
    <circle cx="52" cy="72" r="14" fill="#E6FFFB"/>
    <circle cx="52" cy="140" r="14" fill="#E6FFFB"/>
    <circle cx="226" cy="106" r="14" fill="#8B5CF6"/>
    <circle cx="206" cy="48" r="12" fill="#8B5CF6"/>
    <circle cx="206" cy="164" r="12" fill="#8B5CF6"/>
  </g>
  <g fill="#F8FAFC">
    <text x="388" y="161" font-family="Inter, ui-sans-serif, system-ui, -apple-system, BlinkMacSystemFont, Segoe UI, sans-serif" font-size="86" font-weight="800" letter-spacing="0">Converge</text>
    <text x="394" y="222" font-family="Inter, ui-sans-serif, system-ui, -apple-system, BlinkMacSystemFont, Segoe UI, sans-serif" font-size="28" font-weight="500" fill="#B8C7E5" letter-spacing="0">Repository-scoped dependency intelligence for Python</text>
  </g>
  <path d="M394 252H820" stroke="#2DD4BF" stroke-width="5" stroke-linecap="round"/>
  <path d="M842 252H908" stroke="#8B5CF6" stroke-width="5" stroke-linecap="round"/>
</svg>
